<svg width="1200" height="800" viewBox="0 0 1200 800" fill="none" xmlns="http://www.w3.org/2000/svg">
  <rect width="1200" height="800" rx="40" fill="#07111F"/>
  <rect x="70" y="70" width="1060" height="660" rx="32" fill="url(#bg)"/>
  <rect x="110" y="120" width="980" height="70" rx="20" fill="#0F1C34"/>
  <rect x="150" y="145" width="160" height="18" rx="9" fill="#5EE7FF"/>
  <rect x="340" y="145" width="90" height="14" rx="7" fill="#94A3B8"/>
  <rect x="455" y="145" width="110" height="14" rx="7" fill="#94A3B8"/>
  <rect x="590" y="145" width="100" height="14" rx="7" fill="#94A3B8"/>
  <circle cx="1015" cy="154" r="18" fill="#8B5CF6"/>
  <rect x="110" y="240" width="420" height="280" rx="28" fill="#0F1C34" stroke="#1F3358"/>
  <rect x="150" y="285" width="220" height="18" rx="9" fill="#5EE7FF"/>
  <rect x="150" y="325" width="300" height="14" rx="7" fill="#94A3B8"/>
  <rect x="150" y="355" width="260" height="14" rx="7" fill="#94A3B8"/>
  <rect x="150" y="385" width="220" height="14" rx="7" fill="#94A3B8"/>
  <rect x="150" y="430" width="140" height="40" rx="20" fill="url(#btn)"/>
  <rect x="560" y="240" width="500" height="280" rx="28" fill="#0F1C34" stroke="#1F3358"/>
  <rect x="600" y="280" width="220" height="20" rx="10" fill="#8B5CF6"/>
  <rect x="600" y="330" width="420" height="14" rx="7" fill="#94A3B8"/>
  <rect x="600" y="360" width="380" height="14" rx="7" fill="#94A3B8"/>
  <rect x="600" y="390" width="340" height="14" rx="7" fill="#94A3B8"/>
  <rect x="600" y="430" width="170" height="42" rx="21" fill="#5EE7FF"/>
  <rect x="790" y="430" width="140" height="42" rx="21" fill="#142844"/>
  <rect x="180" y="560" width="820" height="120" rx="28" fill="#0F1C34" stroke="#1F3358"/>
  <rect x="220" y="590" width="240" height="16" rx="8" fill="#5EE7FF"/>
  <rect x="220" y="620" width="220" height="12" rx="6" fill="#94A3B8"/>
  <rect x="850" y="585" width="90" height="50" rx="20" fill="#8B5CF6"/>
  <defs>
    <linearGradient id="bg" x1="110" y1="70" x2="1090" y2="730" gradientUnits="userSpaceOnUse">
      <stop stop-color="#111C33"/>
      <stop offset="1" stop-color="#07111F"/>
    </linearGradient>
    <linearGradient id="btn" x1="150" y1="430" x2="290" y2="470" gradientUnits="userSpaceOnUse">
      <stop stop-color="#5EE7FF"/>
      <stop offset="1" stop-color="#8B5CF6"/>
    </linearGradient>
  </defs>
</svg>
