<svg width="1200" height="800" viewBox="0 0 1200 800" fill="none" xmlns="http://www.w3.org/2000/svg">
  <rect width="1200" height="800" rx="40" fill="#07111F"/>
  <rect x="70" y="70" width="1060" height="660" rx="32" fill="url(#bg)"/>
  <rect x="110" y="120" width="980" height="70" rx="20" fill="#0F1C34"/>
  <rect x="150" y="145" width="180" height="18" rx="9" fill="#5EE7FF"/>
  <rect x="360" y="145" width="90" height="14" rx="7" fill="#94A3B8"/>
  <rect x="480" y="145" width="90" height="14" rx="7" fill="#94A3B8"/>
  <rect x="600" y="145" width="120" height="14" rx="7" fill="#94A3B8"/>
  <circle cx="1015" cy="154" r="18" fill="#8B5CF6"/>
  <rect x="120" y="240" width="300" height="220" rx="28" fill="#0F1C34" stroke="#1F3358"/>
  <rect x="160" y="280" width="140" height="18" rx="9" fill="#5EE7FF"/>
  <rect x="160" y="320" width="220" height="14" rx="7" fill="#94A3B8"/>
  <rect x="160" y="350" width="180" height="14" rx="7" fill="#94A3B8"/>
  <rect x="160" y="390" width="110" height="36" rx="18" fill="url(#btn)"/>
  <rect x="470" y="240" width="600" height="360" rx="28" fill="#0F1C34" stroke="#1F3358"/>
  <rect x="510" y="285" width="240" height="22" rx="11" fill="#8B5CF6"/>
  <rect x="510" y="330" width="320" height="14" rx="7" fill="#94A3B8"/>
  <rect x="510" y="360" width="280" height="14" rx="7" fill="#94A3B8"/>
  <rect x="510" y="390" width="240" height="14" rx="7" fill="#94A3B8"/>
  <rect x="510" y="430" width="120" height="40" rx="20" fill="#5EE7FF"/>
  <rect x="650" y="430" width="110" height="40" rx="20" fill="#142844"/>
  <rect x="220" y="520" width="660" height="140" rx="28" fill="#0F1C34" stroke="#1F3358"/>
  <rect x="260" y="560" width="220" height="16" rx="8" fill="#5EE7FF"/>
  <rect x="260" y="592" width="320" height="12" rx="6" fill="#94A3B8"/>
  <rect x="620" y="560" width="160" height="52" rx="24" fill="#8B5CF6"/>
  <defs>
    <linearGradient id="bg" x1="110" y1="70" x2="1090" y2="730" gradientUnits="userSpaceOnUse">
      <stop stop-color="#111C33"/>
      <stop offset="1" stop-color="#07111F"/>
    </linearGradient>
    <linearGradient id="btn" x1="160" y1="390" x2="270" y2="426" gradientUnits="userSpaceOnUse">
      <stop stop-color="#5EE7FF"/>
      <stop offset="1" stop-color="#8B5CF6"/>
    </linearGradient>
  </defs>
</svg>
